<?xml version="1.0" encoding="UTF-8" standalone="no"?>
<!-- Created with Inkscape (http://www.inkscape.org/) -->

<svg
   version="1.1"
   id="svg1"
   width="1478.2368"
   height="314.16"
   viewBox="0 0 1478.2368 314.16"
   sodipodi:docname="logo_text.svg"
   inkscape:version="1.3.2 (091e20ef0f, 2023-11-25, custom)"
   xmlns:inkscape="http://www.inkscape.org/namespaces/inkscape"
   xmlns:sodipodi="http://sodipodi.sourceforge.net/DTD/sodipodi-0.dtd"
   xmlns="http://www.w3.org/2000/svg"
   xmlns:svg="http://www.w3.org/2000/svg">
  <defs
     id="defs1" />
  <sodipodi:namedview
     id="namedview1"
     pagecolor="#ffffff"
     bordercolor="#000000"
     borderopacity="0.25"
     inkscape:showpageshadow="2"
     inkscape:pageopacity="0.0"
     inkscape:pagecheckerboard="0"
     inkscape:deskcolor="#d1d1d1"
     inkscape:zoom="0.24615294"
     inkscape:cx="-428.59533"
     inkscape:cy="113.75042"
     inkscape:window-width="1920"
     inkscape:window-height="1000"
     inkscape:window-x="3200"
     inkscape:window-y="0"
     inkscape:window-maximized="1"
     inkscape:current-layer="group-R5">
    <inkscape:page
       x="0"
       y="0"
       inkscape:label="1"
       id="page1"
       width="1478.2368"
       height="314.16"
       margin="0"
       bleed="0" />
  </sodipodi:namedview>
  <g
     id="g1"
     inkscape:groupmode="layer"
     inkscape:label="1"
     transform="translate(-2338.7866)">
    <g
       id="group-R5">
      <path
         id="path12"
         style="display:inline;fill:#100f0d;fill-opacity:1;fill-rule:nonzero;stroke:none"
         transform="matrix(0.13333333,0,0,-0.13333333,0,314.16)"
         d="M 17559.2,0 17540.9,8.12891 18585.7,2356.2 18604,2348.07 17559.2,0 m 2245.458,1407.2449 h 44.883 v 486.6797 h -45.468 c -4.219,-3.3984 -26.25,-17.9297 -64.805,-44.7656 -39.375,-27.5391 -61.406,-42.7734 -66.211,-45.4688 v -48.9843 c 15.82,9.6093 41.367,26.8359 77.226,51.6797 l 53.086,37.9687 h 1.289 z m 338.467,-7.6172 c 48.281,0 88.946,15.2344 120.703,46.875 31.641,31.0547 47.578,71.0157 47.578,118.5938 0,45.4687 -15.234,84.1406 -46.289,114.4922 -30.234,30.3515 -68.906,45.4687 -115.078,45.4687 -32.461,0 -62.109,-8.3203 -88.242,-25.5468 -26.25,-16.5235 -44.883,-39.2579 -54.492,-66.0938 h -1.406 c 0,71.6016 12.422,127.5 37.265,167.4609 24.141,39.375 58.594,59.2969 102.774,59.2969 26.836,0 50.976,-7.6172 71.015,-22.7344 19.922,-15.1171 33.047,-35.1562 39.258,-60 h 46.875 c -7.617,37.2657 -24.844,66.9141 -53.789,89.6485 -28.242,22.7344 -62.695,33.75 -102.773,33.75 -57.891,0 -103.36,-23.4375 -135.703,-69.6094 -32.461,-46.1719 -48.985,-109.5703 -48.985,-191.6016 0,-60.7031 11.016,-110.3906 32.344,-148.2421 31.758,-61.4063 80.742,-91.7579 148.945,-91.7579 z m -0.703,40.6641 c -34.453,0 -64.101,12.4219 -87.539,37.2656 -23.437,24.1407 -35.859,53.7891 -35.859,88.9453 0,33.0469 12.422,61.4063 35.859,84.1407 24.141,22.7343 53.789,33.75 88.242,33.75 35.157,0 64.102,-11.0157 86.836,-33.75 23.438,-23.4375 34.453,-52.3828 34.453,-86.9532 0,-34.4531 -11.718,-63.3984 -35.156,-87.539 -23.437,-23.4375 -52.383,-35.8594 -86.836,-35.8594 z m 537.451,-37.1484 c 50.274,0 89.649,17.2265 119.883,50.2734 29.649,33.75 44.883,78.6328 44.883,135.1172 0,56.6016 -15.234,101.3672 -44.883,135.1172 -30.234,33.164 -69.609,50.3906 -119.883,50.3906 -49.687,0 -89.648,-17.2266 -119.297,-50.3906 -30.351,-33.75 -45.468,-78.5156 -45.468,-135.1172 0,-56.4844 15.117,-101.3672 45.468,-135.1172 29.649,-33.0469 69.61,-50.2734 119.297,-50.2734 z m 0,39.9609 c -36.562,0 -66.211,13.125 -87.539,38.5547 -20.742,26.25 -31.758,62.1094 -31.758,106.875 0,45.5859 11.016,80.7422 31.758,106.875 21.328,25.5469 50.977,38.6719 87.539,38.6719 37.266,0 66.211,-13.125 87.539,-38.6719 21.328,-26.1328 31.758,-61.2891 31.758,-106.875 0,-44.7656 -10.43,-80.625 -31.758,-106.875 -21.328,-25.4297 -50.273,-38.5547 -87.539,-38.5547 z m 405.469,-2.8125 c -44.062,1.4063 -79.922,15.2344 -105.469,41.3672 -26.836,26.25 -39.961,61.4062 -39.961,106.1719 0,44.8828 13.125,80.7422 39.961,106.875 25.547,26.25 61.407,39.9609 105.469,41.3672 z m 188.32,148.2422 c 0,-44.7656 -13.125,-80.625 -40.078,-106.875 -25.429,-26.1328 -60.586,-39.9609 -104.765,-41.3672 v 295.7813 c 44.179,-1.4063 79.336,-15.1172 104.765,-41.3672 26.953,-26.1328 40.078,-61.9922 40.078,-106.1719 z m -188.32,-306.0938 h 43.477 v 120 c 57.187,0.7032 102.773,17.9297 137.226,50.9766 35.156,33.75 52.383,78.6328 52.383,135.1172 0,55.8984 -17.227,100.6641 -52.383,134.4141 -34.453,33.164 -80.039,50.3906 -137.226,51.0937 v 121.9922 h -43.477 v -121.9922 c -57.891,-0.7031 -103.359,-17.9297 -137.812,-51.0937 -35.157,-33.75 -52.383,-78.5157 -52.383,-135.1172 0,-55.7813 17.226,-100.6641 52.383,-134.4141 34.453,-33.0469 79.921,-50.2734 137.812,-50.9766 z m 345.41,124.8047 206.133,292.9688 h 2.109 v -292.9688 h 44.063 v 362.5782 h -44.063 l -206.132,-292.9688 h -2.11 v 292.9688 h -43.359 v -362.5782 z m 683.994,-95.8593 v 133.125 h -59.297 v 325.3125 h -44.062 v -325.3125 h -197.93 v 325.3125 h -43.359 v -362.5782 h 302.578 v -95.8593 z m 97.94,95.8593 206.133,292.9688 h 2.109 v -292.9688 h 44.062 v 362.5782 h -44.062 l -206.133,-292.9688 h -2.109 v 292.9688 h -43.36 v -362.5782 z m 454.453,35.1563 c -24.844,0 -45.469,6.2109 -60.703,17.9297 -15.821,12.4218 -24.141,28.2422 -24.141,47.5781 0,41.3672 31.758,64.1016 93.867,68.2031 l 105.469,7.6172 v -39.9609 c 0,-28.9453 -10.43,-53.086 -32.461,-72.4219 -22.031,-19.3359 -48.984,-28.9453 -82.031,-28.9453 z m -8.32,-39.2578 c 27.656,0 53.086,6.914 75.937,19.9218 22.031,13.8282 38.555,31.7579 48.164,53.7891 h 0.703 v -69.6094 h 42.774 v 246.7969 c 0,36.5625 -12.422,66.2109 -36.563,87.5391 -24.844,21.4453 -57.89,32.4609 -99.258,32.4609 -38.554,0 -70.312,-10.3125 -95.859,-31.0547 -25.43,-20.039 -39.258,-46.1719 -41.367,-77.9297 h 42.773 c 4.102,21.4453 14.531,38.6719 31.055,51.0938 16.523,11.7187 37.266,17.9297 62.695,17.9297 29.649,0 51.68,-6.9141 68.321,-22.1485 15.82,-14.414 23.437,-35.1562 23.437,-61.289 v -31.0547 l -110.977,-7.6172 c -88.945,-6.2109 -133.125,-40.6641 -133.125,-104.0625 0,-31.0547 11.016,-56.4844 33.047,-75.8203 22.852,-19.336 51.797,-28.9453 88.243,-28.9453 z m 332.431,159.9609 c 4.805,44.0625 8.203,99.9609 12.422,169.5703 h 147.539 v -325.4297 h 44.063 v 362.5782 h -231.68 c -4.805,-82.7344 -8.906,-150.9375 -14.414,-204.7266 -2.813,-38.5547 -8.32,-67.5 -15.82,-86.1328 -9.727,-22.0313 -22.852,-33.1641 -40.782,-33.1641 -6.797,0 -12.304,0.7031 -17.929,2.8125 v -41.3672 c 5.625,-2.1093 12.422,-2.8125 20.039,-2.8125 32.461,0 56.484,14.5313 71.718,44.1797 12.422,24.1406 20.625,62.6953 24.844,114.4922 z m 412.91,45.4688 c 26.836,0 47.579,-6.9141 63.399,-22.0313 15.82,-14.5312 24.14,-34.5703 24.14,-60 0,-24.8437 -8.32,-44.8828 -23.437,-59.2969 -16.523,-15.2343 -37.266,-22.7343 -64.102,-22.7343 h -78.632 v 164.0625 z m -121.992,-201.3282 h 121.992 c 39.961,0 71.719,11.0157 95.86,32.461 24.14,21.3281 35.859,50.9765 35.859,86.8359 0,36.5625 -11.719,66.2109 -35.859,87.5391 -24.141,22.0312 -55.899,32.3437 -95.86,32.3437 h -78.632 v 123.3985 h -43.36 z m 567.92,0 h 44.063 v 362.5782 h -44.063 v -155.7422 h -203.437 v 155.7422 h -43.36 v -362.5782 h 43.36 v 169.5703 h 203.437 z m 438.955,0 h 44.18 v 362.5782 h -44.18 z m -185.39,201.3282 c 26.836,0 47.578,-6.9141 63.398,-22.0313 15.82,-14.5312 24.141,-34.5703 24.141,-60 0,-24.8437 -8.321,-44.8828 -23.438,-59.2969 -16.523,-15.2343 -37.265,-22.7343 -64.101,-22.7343 h -78.633 v 164.0625 z m -121.993,-201.3282 h 121.993 c 39.961,0 71.718,11.0157 95.859,32.461 24.141,21.3281 35.859,50.9765 35.859,86.8359 0,36.5625 -11.718,66.2109 -35.859,87.5391 -24.141,22.0312 -55.898,32.3437 -95.859,32.3437 h -78.633 v 123.3985 h -43.36 z m 558.809,149.6485 99.961,-149.6485 h 50.391 l -126.211,184.1016 127.617,178.4766 h -51.094 l -99.258,-146.1329 h -1.406 l -100.664,146.1329 h -50.274 l 126.797,-179.8829 -128.203,-182.6953 h 50.391 l 100.664,149.6485 z m 402.832,-149.6485 v 281.9532 h 2.109 l 133.008,-275.0391 h 34.453 l 132.422,275.0391 h 2.11 v -281.9532 h 44.765 v 362.5782 h -50.976 l -143.438,-303.9844 h -2.109 l -143.321,303.9844 h -52.382 v -362.5782 z m 550.693,35.1563 c -24.843,0 -45.468,6.2109 -60.703,17.9297 -15.82,12.4218 -24.14,28.2422 -24.14,47.5781 0,41.3672 31.757,64.1016 93.867,68.2031 l 105.469,7.6172 v -39.9609 c 0,-28.9453 -10.43,-53.086 -32.461,-72.4219 -22.032,-19.3359 -48.985,-28.9453 -82.032,-28.9453 z m -8.32,-39.2578 c 27.656,0 53.086,6.914 75.938,19.9218 22.031,13.8282 38.554,31.7579 48.164,53.7891 h 0.703 v -69.6094 h 42.773 v 246.7969 c 0,36.5625 -12.422,66.2109 -36.562,87.5391 -24.844,21.4453 -57.891,32.4609 -99.258,32.4609 -38.555,0 -70.313,-10.3125 -95.86,-31.0547 -25.429,-20.039 -39.257,-46.1719 -41.367,-77.9297 h 42.774 c 4.101,21.4453 14.531,38.6719 31.054,51.0938 16.524,11.7187 37.266,17.9297 62.696,17.9297 29.648,0 51.679,-6.9141 68.32,-22.1485 15.82,-14.414 23.437,-35.1562 23.437,-61.289 v -31.0547 l -110.976,-7.6172 c -88.945,-6.2109 -133.125,-40.6641 -133.125,-104.0625 0,-31.0547 11.016,-56.4844 33.047,-75.8203 22.851,-19.336 51.797,-28.9453 88.242,-28.9453 z m 479.971,329.5312 v 37.1485 h -229.571 v -362.5782 h 43.36 v 325.4297 z m 163.886,-290.2734 c -24.843,0 -45.468,6.2109 -60.703,17.9297 -15.82,12.4218 -24.14,28.2422 -24.14,47.5781 0,41.3672 31.758,64.1016 93.867,68.2031 l 105.469,7.6172 v -39.9609 c 0,-28.9453 -10.43,-53.086 -32.461,-72.4219 -22.032,-19.3359 -48.985,-28.9453 -82.032,-28.9453 z m -8.32,-39.2578 c 27.656,0 53.086,6.914 75.938,19.9218 22.031,13.8282 38.554,31.7579 48.164,53.7891 h 0.703 v -69.6094 h 42.773 v 246.7969 c 0,36.5625 -12.422,66.2109 -36.562,87.5391 -24.844,21.4453 -57.891,32.4609 -99.258,32.4609 -38.555,0 -70.313,-10.3125 -95.859,-31.0547 -25.43,-20.039 -39.258,-46.1719 -41.368,-77.9297 h 42.774 c 4.101,21.4453 14.531,38.6719 31.054,51.0938 16.524,11.7187 37.266,17.9297 62.696,17.9297 29.648,0 51.679,-6.9141 68.32,-22.1485 15.82,-14.414 23.438,-35.1562 23.438,-61.289 v -31.0547 l -110.977,-7.6172 c -88.945,-6.2109 -133.125,-40.6641 -133.125,-104.0625 0,-31.0547 11.016,-56.4844 33.047,-75.8203 22.851,-19.336 51.797,-28.9453 88.242,-28.9453 z m 368.262,-2.1094 c 41.367,0 73.711,9.6094 98.555,29.6484 24.843,20.0391 37.265,46.875 37.265,79.9219 0,23.4375 -6.914,42.0703 -21.445,57.3047 -13.711,14.4141 -32.344,24.1406 -57.188,28.2422 v 2.1094 c 20.039,4.8046 35.86,13.7109 48.282,28.9453 11.718,15.1172 17.929,32.3437 17.929,52.3828 0,28.9453 -10.429,52.3828 -31.757,69.6094 -22.032,17.9296 -51.68,26.8359 -90.352,26.8359 -37.852,0 -68.906,-9.6094 -93.047,-27.5391 -23.437,-17.9297 -37.148,-42.0703 -41.367,-71.7187 h 43.476 c 3.399,17.9297 13.125,33.164 28.946,44.1797 15.82,11.0156 36.562,17.2265 61.992,17.2265 24.844,0 44.883,-6.2109 58.594,-17.2265 13.125,-11.0157 20.039,-26.25 20.039,-44.1797 0,-20.625 -6.914,-35.8594 -20.625,-46.875 -14.531,-11.0156 -34.571,-16.5235 -60.703,-16.5235 h -56.602 v -37.2656 h 56.602 c 61.992,0 93.75,-22.7344 93.75,-67.5 0,-21.4453 -8.321,-38.6719 -24.141,-51.0937 -17.227,-12.3047 -39.258,-19.2188 -68.203,-19.2188 -26.25,0 -47.578,6.211 -64.805,17.2266 -16.64,11.0156 -26.953,25.4297 -31.054,44.0625 h -44.883 c 4.218,-29.6485 18.633,-53.7891 44.179,-71.7188 25.547,-17.8125 57.891,-26.8359 96.563,-26.8359 z m 249.639,6.2109 206.132,292.9688 h 2.11 v -292.9688 h 44.062 v 362.5782 h -44.062 l -206.133,-292.9688 h -2.109 v 292.9688 h -43.36 v -362.5782 z m 586.171,0 h 44.063 v 362.5782 h -44.063 v -155.7422 h -203.437 v 155.7422 h -43.359 v -362.5782 h 43.359 v 169.5703 h 203.437 z m 277.676,-4.1015 c 50.274,0 89.649,17.2265 119.883,50.2734 29.648,33.75 44.883,78.6328 44.883,135.1172 0,56.6016 -15.235,101.3672 -44.883,135.1172 -30.234,33.164 -69.609,50.3906 -119.883,50.3906 -49.687,0 -89.648,-17.2266 -119.297,-50.3906 -30.351,-33.75 -45.468,-78.5156 -45.468,-135.1172 0,-56.4844 15.117,-101.3672 45.468,-135.1172 29.649,-33.0469 69.61,-50.2734 119.297,-50.2734 z m 0,39.9609 c -36.562,0 -66.211,13.125 -87.539,38.5547 -20.742,26.25 -31.758,62.1094 -31.758,106.875 0,45.5859 11.016,80.7422 31.758,106.875 21.328,25.5469 50.977,38.6719 87.539,38.6719 37.266,0 66.211,-13.125 87.539,-38.6719 21.328,-26.1328 31.758,-61.2891 31.758,-106.875 0,-44.7656 -10.43,-80.625 -31.758,-106.875 -21.328,-25.4297 -50.273,-38.5547 -87.539,-38.5547 z m 375.235,289.5703 c 22.031,0 39.257,-5.5078 51.679,-15.2344 12.422,-10.3125 18.633,-24.1406 18.633,-42.6562 0,-40.6641 -26.25,-61.4063 -77.226,-61.4063 h -91.055 v 119.2969 z m -3.516,-156.5625 c 60.703,0 91.055,-21.3281 91.055,-65.5078 0,-44.0625 -27.657,-66.0937 -82.735,-66.0937 h -102.773 v 131.6015 z m -137.813,-168.8672 h 147.54 c 38.554,0 69.609,8.9063 91.64,27.5391 22.031,17.9297 33.75,43.4766 33.75,75.2344 0,24.0234 -8.203,43.3593 -23.437,59.2968 -14.414,15.1172 -33.75,24.0235 -57.891,26.836 v 2.1094 c 18.633,3.3984 33.75,13.0078 45.469,28.2421 11.719,15.1172 17.929,32.3438 17.929,52.3829 0,28.2421 -9.609,50.2734 -28.945,66.914 -19.922,15.8203 -46.172,24.0235 -79.922,24.0235 h -146.133 z m 538.506,0 206.133,292.9688 h 2.11 v -292.9688 h 44.062 v 362.5782 h -44.062 l -206.133,-292.9688 h -2.11 v 292.9688 h -43.359 V 1407.2449 Z M 19976.338,835.80938 c -5.508,31.64063 -22.031,57.89063 -47.578,77.8125 -27.539,22.14844 -60.586,33.16407 -99.961,33.16407 -48.867,0 -88.242,-17.22657 -117.891,-50.39063 -30.351,-33.75 -44.765,-78.51562 -44.765,-135.11719 0,-56.48437 14.414,-101.95312 44.765,-135.82031 29.649,-33.04687 69.024,-49.57031 118.594,-49.57031 37.969,0 71.016,10.3125 97.969,30.35156 26.133,19.21875 42.656,45.46875 48.867,77.8125 h -44.062 c -6.914,-21.32812 -18.633,-37.85156 -36.563,-49.57031 -17.93,-12.42188 -39.961,-18.63281 -66.211,-18.63281 -35.859,0 -64.101,13.125 -86.133,39.25781 -21.445,26.25 -32.461,61.40625 -32.461,106.17187 0,44.17969 11.016,79.33594 32.461,106.17188 21.329,26.25 50.274,39.375 85.43,39.375 26.953,0 49.688,-6.91406 68.32,-20.03906 17.93,-13.125 28.946,-29.64844 35.157,-50.97657 z m 156.885,-65.50781 184.805,172.26563 h -56.602 l -173.672,-163.35938 h -2.109 V 942.5672 h -43.36 V 579.98907 h 43.36 v 177.1875 h 2.109 l 177.891,-177.1875 h 59.297 z m 325.693,-34.45312 c 4.805,44.0625 8.203,99.96093 12.422,169.57031 h 147.539 V 579.98907 h 44.063 V 942.5672 h -231.68 c -4.805,-82.73438 -8.906,-150.9375 -14.414,-204.72657 -2.813,-38.55468 -8.32,-67.5 -15.82,-86.13281 -9.727,-22.03125 -22.852,-33.16406 -40.782,-33.16406 -6.796,0 -12.304,0.7031 -17.929,2.8125 v -41.36719 c 5.625,-2.10937 12.422,-2.8125 20.039,-2.8125 32.461,0 56.484,14.53125 71.719,44.17969 12.421,24.14062 20.625,62.69531 24.843,114.49219 z m 405.996,-120.70313 c -24.843,0 -45.468,6.21094 -60.703,17.92969 -15.82,12.42187 -24.14,28.24219 -24.14,47.57812 0,41.36719 31.757,64.10157 93.867,68.20313 l 105.469,7.61719 v -39.96094 c 0,-28.94531 -10.43,-53.08594 -32.461,-72.42188 -22.032,-19.33593 -48.985,-28.94531 -82.032,-28.94531 z m -8.32,-39.25781 c 27.656,0 53.086,6.91406 75.938,19.92187 22.031,13.82813 38.554,31.75782 48.164,53.78907 h 0.703 v -69.60938 h 42.773 v 246.79688 c 0,36.5625 -12.422,66.21093 -36.562,87.53906 -24.844,21.44531 -57.891,32.46094 -99.258,32.46094 -38.555,0 -70.313,-10.3125 -95.86,-31.05469 -25.429,-20.03906 -39.257,-46.17188 -41.367,-77.92969 h 42.774 c 4.101,21.44531 14.531,38.67188 31.054,51.09375 16.524,11.71875 37.266,17.92969 62.696,17.92969 29.648,0 51.679,-6.91406 68.32,-22.14844 15.82,-14.41406 23.437,-35.15625 23.437,-61.28906 v -31.05469 l -110.976,-7.61719 c -88.945,-6.21093 -133.125,-40.66406 -133.125,-104.0625 0,-31.05468 11.016,-56.48437 33.047,-75.82031 22.851,-19.33594 51.797,-28.94531 88.242,-28.94531 z m 498.604,41.36719 h -202.735 v 1.99218 c 17.227,20.74219 28.242,60 33.047,116.60157 4.805,48.86718 9.023,105.46875 12.422,169.57031 h 157.266 z M 21112.5,484.1297 v 95.85937 h 303.985 V 484.1297 h 42.07 v 133.125 h -58.594 v 325.3125 h -241.992 c -2.813,-53.67188 -7.617,-121.99219 -13.828,-204.72657 -5.508,-64.80468 -19.922,-104.76562 -44.063,-120.58593 h -29.648 v -133.125 z m 546.914,91.75781 c 50.274,0 89.649,17.22656 119.883,50.27344 29.649,33.75 44.883,78.63281 44.883,135.11718 0,56.60157 -15.234,101.36719 -44.883,135.11719 -30.234,33.16406 -69.609,50.39063 -119.883,50.39063 -49.687,0 -89.648,-17.22657 -119.297,-50.39063 -30.351,-33.75 -45.468,-78.51562 -45.468,-135.11719 0,-56.48437 15.117,-101.36718 45.468,-135.11718 29.649,-33.04688 69.61,-50.27344 119.297,-50.27344 z m 0,39.96094 c -36.562,0 -66.211,13.125 -87.539,38.55468 -20.742,26.25 -31.758,62.10938 -31.758,106.875 0,45.58594 11.016,80.74219 31.758,106.875 21.328,25.54688 50.977,38.67188 87.539,38.67188 37.266,0 66.211,-13.125 87.539,-38.67188 21.328,-26.13281 31.758,-61.28906 31.758,-106.875 0,-44.76562 -10.43,-80.625 -31.758,-106.875 -21.328,-25.42968 -50.273,-38.55468 -87.539,-38.55468 z m 375.235,289.57031 c 22.031,0 39.257,-5.50781 51.679,-15.23438 12.422,-10.3125 18.633,-24.14062 18.633,-42.65625 0,-40.66406 -26.25,-61.40625 -77.226,-61.40625 h -91.055 v 119.29688 z m -3.516,-156.5625 c 60.703,0 91.055,-21.32813 91.055,-65.50781 0,-44.0625 -27.657,-66.09375 -82.735,-66.09375 h -102.773 v 131.60156 z m -137.812,-168.86719 h 147.539 c 38.554,0 69.609,8.90625 91.64,27.53906 22.031,17.92969 33.75,43.47657 33.75,75.23438 0,24.02344 -8.203,43.35937 -23.437,59.29687 -14.414,15.11719 -33.75,24.02344 -57.891,26.83594 v 2.10938 c 18.633,3.39843 33.75,13.00781 45.469,28.24218 11.719,15.11719 17.93,32.34375 17.93,52.38282 0,28.24218 -9.61,50.27343 -28.946,66.91406 -19.922,15.82031 -46.172,24.02344 -79.922,24.02344 h -146.132 z m 636.474,325.42969 c 22.031,0 39.258,-5.50781 51.68,-15.23438 12.422,-10.3125 18.633,-24.14062 18.633,-42.65625 0,-40.66406 -26.25,-61.40625 -77.227,-61.40625 h -91.055 v 119.29688 z m -3.515,-156.5625 c 60.703,0 91.054,-21.32813 91.054,-65.50781 0,-44.0625 -27.656,-66.09375 -82.734,-66.09375 h -102.774 v 131.60156 z m -137.813,-168.86719 h 147.539 c 38.555,0 69.609,8.90625 91.641,27.53906 22.031,17.92969 33.75,43.47657 33.75,75.23438 0,24.02344 -8.203,43.35937 -23.438,59.29687 -14.414,15.11719 -33.75,24.02344 -57.89,26.83594 v 2.10938 c 18.632,3.39843 33.75,13.00781 45.468,28.24218 11.719,15.11719 17.93,32.34375 17.93,52.38282 0,28.24218 -9.609,50.27343 -28.945,66.91406 -19.922,15.82031 -46.172,24.02344 -79.922,24.02344 h -146.133 z m 499.951,486.09373 V 579.98907 h 46.172 v 183.39844 h 126.211 c 46.172,0 83.32,13.82812 112.266,42.07031 29.062,27.53906 43.476,64.10156 43.476,108.86719 0,45.58594 -13.828,82.03125 -42.773,109.68749 -28.946,27.5391 -66.797,42.0703 -112.969,42.0703 z m 46.172,-41.3672 h 115.781 c 37.266,0 66.914,-9.7265 87.539,-29.06247 21.446,-19.21875 31.758,-46.875 31.758,-81.32812 0,-34.45313 -10.312,-61.28906 -31.758,-80.625 -21.328,-20.03906 -50.273,-29.64844 -87.539,-29.64844 h -115.781 z m 486.299,-448.82809 c 50.273,0 89.648,17.22656 119.883,50.27344 29.648,33.75 44.883,78.63281 44.883,135.11718 0,56.60157 -15.235,101.36719 -44.883,135.11719 -30.235,33.16406 -69.61,50.39063 -119.883,50.39063 -49.688,0 -89.649,-17.22657 -119.297,-50.39063 -30.352,-33.75 -45.469,-78.51562 -45.469,-135.11719 0,-56.48437 15.117,-101.36718 45.469,-135.11718 29.648,-33.04688 69.609,-50.27344 119.297,-50.27344 z m 0,39.96094 c -36.563,0 -66.211,13.125 -87.539,38.55468 -20.742,26.25 -31.758,62.10938 -31.758,106.875 0,45.58594 11.016,80.74219 31.758,106.875 21.328,25.54688 50.976,38.67188 87.539,38.67188 37.266,0 66.211,-13.125 87.539,-38.67188 21.328,-26.13281 31.758,-61.28906 31.758,-106.875 0,-44.76562 -10.43,-80.625 -31.758,-106.875 -21.328,-25.42968 -50.273,-38.55468 -87.539,-38.55468 z m 524.766,219.96093 c -5.508,31.64063 -22.032,57.89063 -47.579,77.8125 -27.539,22.14844 -60.586,33.16407 -99.961,33.16407 -48.867,0 -88.242,-17.22657 -117.89,-50.39063 -30.352,-33.75 -44.766,-78.51562 -44.766,-135.11719 0,-56.48437 14.414,-101.95312 44.766,-135.82031 29.648,-33.04687 69.023,-49.57031 118.594,-49.57031 37.968,0 71.015,10.3125 97.968,30.35156 26.133,19.21875 42.657,45.46875 48.868,77.8125 h -44.063 c -6.914,-21.32812 -18.633,-37.85156 -36.562,-49.57031 -17.93,-12.42188 -39.961,-18.63281 -66.211,-18.63281 -35.86,0 -64.102,13.125 -86.133,39.25781 -21.446,26.25 -32.461,61.40625 -32.461,106.17187 0,44.17969 11.015,79.33594 32.461,106.17188 21.328,26.25 50.273,39.375 85.429,39.375 26.954,0 49.688,-6.91406 68.321,-20.03906 17.929,-13.125 28.945,-29.64844 35.156,-50.97657 z m 356.806,0 c -5.508,31.64063 -22.031,57.89063 -47.578,77.8125 -27.539,22.14844 -60.586,33.16407 -99.961,33.16407 -48.867,0 -88.242,-17.22657 -117.891,-50.39063 -30.351,-33.75 -44.765,-78.51562 -44.765,-135.11719 0,-56.48437 14.414,-101.95312 44.765,-135.82031 29.649,-33.04687 69.024,-49.57031 118.594,-49.57031 37.969,0 71.016,10.3125 97.969,30.35156 26.133,19.21875 42.656,45.46875 48.867,77.8125 h -44.062 c -6.914,-21.32812 -18.633,-37.85156 -36.563,-49.57031 -17.93,-12.42188 -39.961,-18.63281 -66.211,-18.63281 -35.859,0 -64.101,13.125 -86.133,39.25781 -21.445,26.25 -32.461,61.40625 -32.461,106.17187 0,44.17969 11.016,79.33594 32.461,106.17188 21.329,26.25 50.274,39.375 85.43,39.375 26.953,0 49.688,-6.91406 68.32,-20.03906 17.93,-13.125 28.946,-29.64844 35.157,-50.97657 z m 109.307,-255.82031 206.133,292.96875 h 2.109 V 579.98907 h 44.063 V 942.5672 h -44.063 l -206.133,-292.96875 h -2.109 V 942.5672 h -43.36 V 579.98907 Z m 382.734,0 206.133,292.96875 h 2.109 V 579.98907 h 44.063 V 942.5672 h -44.063 l -206.132,-292.96875 h -2.11 V 942.5672 h -43.359 V 579.98907 Z m 0,0" />
    </g>
  </g>
</svg>
